<svg style="width:335px; height:50;" viewBox="0 0 1379 217" fill="none" xmlns="http://www.w3.org/2000/svg">
    <path d="M135.392 94.8H150.56V162H135.392V94.8ZM165.486 94.8H179.31L215.886 144.144L211.95 145.488V94.8H226.254V162H212.526L175.95 112.752L179.982 111.408V162H165.486V94.8ZM233.75 94.8H250.07L268.406 146.16L286.838 94.8H302.486L275.798 162H260.15L233.75 94.8ZM309.861 94.8H361.029V106.992H325.029V122.16H357.381V134.352H325.029V149.808H362.085V162H309.861V94.8ZM418.242 113.04C415.874 111.568 413.41 110.352 410.85 109.392C408.354 108.368 405.922 107.6 403.554 107.088C401.25 106.512 399.17 106.224 397.314 106.224C394.754 106.224 392.674 106.736 391.074 107.76C389.538 108.72 388.77 110.192 388.77 112.176C388.77 114.032 389.41 115.568 390.69 116.784C392.034 117.936 393.762 118.896 395.874 119.664C397.986 120.368 400.322 121.104 402.882 121.872C405.442 122.576 407.97 123.408 410.466 124.368C413.026 125.328 415.362 126.576 417.474 128.112C419.65 129.584 421.346 131.504 422.562 133.872C423.842 136.176 424.482 139.056 424.482 142.512C424.482 146.864 423.33 150.544 421.026 153.552C418.722 156.56 415.554 158.864 411.522 160.464C407.554 162.064 403.106 162.864 398.178 162.864C394.466 162.864 390.818 162.416 387.234 161.52C383.65 160.624 380.258 159.376 377.058 157.776C373.922 156.112 371.074 154.192 368.514 152.016L374.562 140.112C376.866 142.16 379.394 143.952 382.146 145.488C384.962 147.024 387.778 148.208 390.594 149.04C393.41 149.872 396.002 150.288 398.37 150.288C401.506 150.288 403.938 149.68 405.666 148.464C407.458 147.248 408.354 145.52 408.354 143.28C408.354 141.36 407.714 139.824 406.434 138.672C405.154 137.52 403.458 136.56 401.346 135.792C399.234 134.96 396.898 134.224 394.338 133.584C391.778 132.88 389.218 132.08 386.658 131.184C384.098 130.224 381.762 129.04 379.65 127.632C377.538 126.16 375.81 124.304 374.466 122.064C373.186 119.824 372.546 116.976 372.546 113.52C372.546 109.424 373.634 105.904 375.81 102.96C377.986 99.952 381.026 97.648 384.93 96.048C388.834 94.384 393.378 93.552 398.562 93.552C403.298 93.552 407.906 94.256 412.386 95.664C416.866 97.008 420.77 98.768 424.098 100.944L418.242 113.04ZM428.487 94.8H484.647V107.28H464.103V162H448.935V107.28H428.487V94.8ZM492.767 94.8H509.663L530.591 136.656L551.327 94.8H568.127V162H554.495V115.728L535.391 155.184H525.599L506.399 115.728V162H492.767V94.8ZM583.048 94.8H634.216V106.992H598.216V122.16H630.568V134.352H598.216V149.808H635.272V162H583.048V94.8ZM647.173 94.8H660.997L697.573 144.144L693.637 145.488V94.8H707.941V162H694.213L657.637 112.752L661.669 111.408V162H647.173V94.8ZM716.206 94.8H772.366V107.28H751.822V162H736.654V107.28H716.206V94.8ZM837.273 94.8C842.201 94.8 846.457 95.472 850.041 96.816C853.625 98.16 856.377 100.112 858.297 102.672C860.281 105.168 861.273 108.144 861.273 111.6C861.273 115.248 860.217 118.416 858.105 121.104C856.057 123.728 853.241 125.488 849.657 126.384C854.009 127.216 857.433 129.168 859.929 132.24C862.425 135.248 863.673 138.96 863.673 143.376C863.673 147.216 862.617 150.544 860.505 153.36C858.457 156.112 855.545 158.256 851.769 159.792C847.993 161.264 843.513 162 838.329 162H806.361V94.8H837.273ZM836.505 121.968C839.321 121.968 841.561 121.296 843.225 119.952C844.889 118.544 845.721 116.624 845.721 114.192C845.721 111.824 844.889 110 843.225 108.72C841.561 107.376 839.321 106.736 836.505 106.8H821.529V121.968H836.505ZM836.505 150C840.089 150 842.905 149.264 844.953 147.792C847.001 146.32 848.025 144.24 848.025 141.552C848.025 139.056 847.001 137.072 844.953 135.6C842.905 134.128 840.089 133.424 836.505 133.488H821.529V150H836.505ZM896.305 94.8H911.857L940.465 162H924.337L903.601 109.968L882.769 162H867.024L896.305 94.8ZM883.345 136.752H922.993V148.56H883.345V136.752ZM947.548 94.8H961.372L997.948 144.144L994.012 145.488V94.8H1008.32V162H994.588L958.012 112.752L962.044 111.408V162H947.548V94.8ZM1023.2 94.8H1038.37V126.768L1066.21 94.8H1083.88L1038.37 145.008V162H1023.2V94.8ZM1057.28 121.008L1085.51 162H1067.36L1047.2 133.008L1057.28 121.008ZM1093.99 94.8H1109.15V162H1093.99V94.8ZM1124.08 94.8H1137.9L1174.48 144.144L1170.54 145.488V94.8H1184.85V162H1171.12L1134.54 112.752L1138.58 111.408V162H1124.08V94.8ZM1250.04 114.096C1247.61 111.728 1244.73 109.872 1241.4 108.528C1238.14 107.184 1234.87 106.512 1231.61 106.512C1228.6 106.512 1225.82 107.088 1223.26 108.24C1220.7 109.328 1218.46 110.864 1216.54 112.848C1214.62 114.832 1213.11 117.136 1212.02 119.76C1211 122.384 1210.49 125.232 1210.49 128.304C1210.49 131.376 1211.03 134.256 1212.12 136.944C1213.21 139.568 1214.71 141.904 1216.63 143.952C1218.55 145.936 1220.79 147.504 1223.35 148.656C1225.91 149.744 1228.7 150.288 1231.7 150.288C1234.46 150.288 1237.43 149.68 1240.63 148.464C1243.83 147.248 1246.74 145.616 1249.37 143.568L1258.01 154.224C1255.64 155.888 1252.92 157.392 1249.85 158.736C1246.84 160.08 1243.67 161.136 1240.34 161.904C1237.02 162.672 1233.82 163.056 1230.74 163.056C1225.62 163.056 1220.89 162.192 1216.54 160.464C1212.25 158.672 1208.47 156.208 1205.21 153.072C1201.94 149.936 1199.42 146.256 1197.62 142.032C1195.83 137.744 1194.94 133.168 1194.94 128.304C1194.94 123.44 1195.86 118.928 1197.72 114.768C1199.58 110.544 1202.14 106.864 1205.4 103.728C1208.73 100.592 1212.63 98.16 1217.11 96.432C1221.59 94.704 1226.42 93.84 1231.61 93.84C1234.94 93.84 1238.23 94.256 1241.5 95.088C1244.76 95.856 1247.86 96.976 1250.81 98.448C1253.75 99.92 1256.34 101.68 1258.58 103.728L1250.04 114.096ZM1244.86 128.208H1258.01V154.224H1244.86V128.208Z" fill="black"/>
    <path d="M75.3085 113.473L57.5556 95.7204C44.9987 83.1635 53.8751 61.9466 71.6281 61.9466L94.7935 61.9466L94.7935 165L0.000131967 165L75.3085 113.473Z" fill="black"/>
    <path d="M98.9043 21.1392C98.9043 32.814 89.44 42.2784 77.7652 42.2784C66.0903 42.2784 56.626 32.814 56.626 21.1392C56.626 9.46434 66.0903 0 77.7652 0C89.44 0 98.9043 9.46434 98.9043 21.1392Z" fill="black"/>
</svg>
